<svg xmlns="http://www.w3.org/2000/svg" viewBox="0 0 1200 120" preserveAspectRatio="none"><path d="M0,0V46.29c47.29,22,104.24,29.05,158,17C276.92,36.07,335.81-4.2,423.45,1.55,498.3,6.39,551.7,49,626.32,61.15c95.85,15.4,164.74-34.18,252.4-43.11C972.37,9.24,1040.46,28.75,1105,50.21c41.95,14,74.57,29.28,95,39.08V0Z" opacity=".25" fill="#6558f5"/><path d="M0,0V15.81C13,36.22,27.64,55.23,47.69,60.12,99.41,72.6,144.28,32.22,205.9,28.4,261,25,316,56,370.49,71.58c62,17.92,104.62,7,166-8.29,59.82-15,117.91-35.66,180-28.22,87,10.14,172.8,62.38,249.23,79.32,65.08,14.51,122.83,2.4,233.77-31.57V0Z" opacity=".5" fill="#2ec4b6"/><path d="M0,0V5.63C149.93,59,314.09,71.49,475.83,42.57c43-7.64,84.23-20.12,127.61-26.46C739,5.06,820.35,9.39,897.63,32.2c86.2,25.45,172.83,79.27,248.37,85.39,54.69,4.5,104.05-13.11,153.99-24.61V0Z" fill="#f7fafb"/></svg>