<svg xmlns="http://www.w3.org/2000/svg" viewBox="0 0 1200 120" preserveAspectRatio="none"><path d="M321.39,56.44c58-10.79,114.16-30.13,172-41.86,82.06-16.59,168.09-17,250.45-0.39C823.78,24.86,891.08,53,959.41,72c120.29,34.31,236.21,23.46,240.59,22.9V0H0V27.35C83.92,47.9,203.24,78.65,321.39,56.44Z" opacity=".25" fill="#6558f5"/><path d="M1200,0V110.27c-61.89-3.64-113.77-17.66-162-30.77C905.61,48.52,849.28,25.07,787.58,22.13,681.3,16.93,589,62,481.16,77.91c-67.88,9.89-136.74,5.3-204.09-10.88C178.75,55.9,92.34,33,0,24.35V0Z" opacity=".5" fill="#2ec4b6"/><path d="M1200,0V78.35c-86.29,17.95-170.4,16.47-256-7.34C830.35,49.62,741.32,17.15,657.09,18.66c-74.41,1.36-140.23,27.01-212.21,39.14C343.16,70.56,173.74,61.33,0,0V0Z" fill="#f7fafb"/></svg>